<svg id="Layer_1" data-name="Layer 1" xmlns="http://www.w3.org/2000/svg" viewBox="0 0 543.86 479.46"><defs><style>.cls-1{fill:#231f20;}.cls-2{fill:none;stroke:#231f20;stroke-miterlimit:10;stroke-width:0.72px;}</style></defs><title>brand1</title><path class="cls-1" d="M20.56,46.64c5.53,0,5.54-8.59,0-8.59s-5.53,8.59,0,8.59Z" transform="translate(93.55 25.72)"/><path class="cls-1" d="M17.47,106.75c5.53,0,5.54-8.59,0-8.59s-5.54,8.59,0,8.59Z" transform="translate(93.55 25.72)"/><path class="cls-1" d="M57.13,66.56c5.53,0,5.54-8.6,0-8.6s-5.54,8.6,0,8.6Z" transform="translate(93.55 25.72)"/><path class="cls-1" d="M87.2,44.11c5.53,0,5.54-8.59,0-8.59s-5.54,8.59,0,8.59Z" transform="translate(93.55 25.72)"/><path class="cls-1" d="M14.25,174.37c5.53,0,5.54-8.59,0-8.59s-5.53,8.59,0,8.59Z" transform="translate(93.55 25.72)"/><path class="cls-1" d="M5,240.46c5.53,0,5.53-8.59,0-8.59s-5.54,8.59,0,8.59Z" transform="translate(93.55 25.72)"/><path class="cls-1" d="M101.48,160.35c5.53,0,5.54-8.59,0-8.59s-5.54,8.59,0,8.59Z" transform="translate(93.55 25.72)"/><path class="cls-1" d="M167.68,71.88c5.53,0,5.54-8.59,0-8.59s-5.53,8.59,0,8.59Z" transform="translate(93.55 25.72)"/><path class="cls-1" d="M85,111.68v-.35a4.39,4.39,0,0,0-1.26-3,4.33,4.33,0,0,0-3-1.26,4.38,4.38,0,0,0-4.29,4.3v.35a4.3,4.3,0,1,0,8.59,0Z" transform="translate(93.55 25.72)"/><path class="cls-1" d="M150.5,26.14c5.53,0,5.54-8.6,0-8.6s-5.54,8.6,0,8.6Z" transform="translate(93.55 25.72)"/><path class="cls-1" d="M59.37,15.39c5.53,0,5.54-8.59,0-8.59s-5.54,8.59,0,8.59Z" transform="translate(93.55 25.72)"/><path class="cls-1" d="M243.33,43c5.53,0,5.54-8.59,0-8.59s-5.54,8.59,0,8.59Z" transform="translate(93.55 25.72)"/><path class="cls-1" d="M275.85,24.53c5.53,0,5.53-8.59,0-8.59s-5.54,8.59,0,8.59Z" transform="translate(93.55 25.72)"/><path class="cls-1" d="M182.13,18.4c5.53,0,5.54-8.59,0-8.59s-5.53,8.59,0,8.59Z" transform="translate(93.55 25.72)"/><path class="cls-1" d="M126-7.19c5.53,0,5.54-8.59,0-8.59s-5.53,8.59,0,8.59Z" transform="translate(93.55 25.72)"/><path class="cls-1" d="M6-4.43C11.5-4.43,11.51-13,6-13S.43-4.43,6-4.43Z" transform="translate(93.55 25.72)"/><path class="cls-1" d="M-32.34,86.27c5.53,0,5.54-8.59,0-8.59s-5.53,8.59,0,8.59Z" transform="translate(93.55 25.72)"/><path class="cls-1" d="M-42.4,202.12c5.53,0,5.54-8.59,0-8.59s-5.54,8.59,0,8.59Z" transform="translate(93.55 25.72)"/><path class="cls-1" d="M-10.19,135.32c5.52,0,5.53-8.6,0-8.6s-5.54,8.6,0,8.6Z" transform="translate(93.55 25.72)"/><path class="cls-1" d="M130.23,62.7c5.53,0,5.54-8.6,0-8.6s-5.53,8.6,0,8.6Z" transform="translate(93.55 25.72)"/><path class="cls-1" d="M241.21,18.26c5.53,0,5.54-8.6,0-8.6s-5.53,8.6,0,8.6Z" transform="translate(93.55 25.72)"/><path class="cls-1" d="M122.63,113.42c5.53,0,5.54-8.59,0-8.59s-5.54,8.59,0,8.59Z" transform="translate(93.55 25.72)"/><path class="cls-1" d="M181.26,141.91c5.53,0,5.54-8.59,0-8.59s-5.54,8.59,0,8.59Z" transform="translate(93.55 25.72)"/><path class="cls-1" d="M251.3,82.86c5.52,0,5.53-8.59,0-8.59s-5.54,8.59,0,8.59Z" transform="translate(93.55 25.72)"/><path class="cls-1" d="M333.19,43.69c5.53,0,5.54-8.59,0-8.59s-5.54,8.59,0,8.59Z" transform="translate(93.55 25.72)"/><path class="cls-1" d="M407.4,38.06c5.53,0,5.53-8.59,0-8.59s-5.54,8.59,0,8.59Z" transform="translate(93.55 25.72)"/><path class="cls-1" d="M53,209.23c5.53,0,5.54-8.59,0-8.59s-5.54,8.59,0,8.59Z" transform="translate(93.55 25.72)"/><path class="cls-1" d="M6.76,324c5.53,0,5.54-8.59,0-8.59S1.23,324,6.76,324Z" transform="translate(93.55 25.72)"/><path class="cls-1" d="M57.28,359.68c5.53,0,5.54-8.59,0-8.59s-5.53,8.59,0,8.59Z" transform="translate(93.55 25.72)"/><path class="cls-1" d="M84.62,284.21c5.52,0,5.53-8.59,0-8.59s-5.54,8.59,0,8.59Z" transform="translate(93.55 25.72)"/><path class="cls-1" d="M115.91,214.05c5.53,0,5.54-8.6,0-8.6s-5.54,8.6,0,8.6Z" transform="translate(93.55 25.72)"/><path class="cls-1" d="M160.18,187.46h0c0-5.52-8.59-5.53-8.59,0h0c0,5.53,8.59,5.54,8.59,0h0c0-5.52-8.59-5.53-8.59,0h0c0,5.53,8.59,5.54,8.59,0Z" transform="translate(93.55 25.72)"/><path class="cls-1" d="M10.35,399.05c5.53,0,5.54-8.6,0-8.6s-5.53,8.6,0,8.6Z" transform="translate(93.55 25.72)"/><path class="cls-1" d="M-89.4,367.4c5.53,0,5.54-8.59,0-8.59s-5.54,8.59,0,8.59Z" transform="translate(93.55 25.72)"/><path class="cls-1" d="M-46.22,353.76c5.53,0,5.54-8.6,0-8.6s-5.54,8.6,0,8.6Z" transform="translate(93.55 25.72)"/><path class="cls-1" d="M-1.6,339.66c5.53,0,5.54-8.59,0-8.59s-5.54,8.59,0,8.59Z" transform="translate(93.55 25.72)"/><path class="cls-1" d="M-70.68,270.3c5.52,0,5.53-8.59,0-8.59s-5.54,8.59,0,8.59Z" transform="translate(93.55 25.72)"/><polyline class="cls-2" points="223.78 84.12 180.75 65.54 150.68 87.98"/><line class="cls-2" x1="195.03" y1="181.78" x2="216.18" y2="134.85"/><polyline class="cls-2" points="174.25 137.05 111.5 128.24 111.02 128.18 83.36 156.74 61.22 107.7 111.63 128.82 114.11 68.07 150.68 87.98 111.02 128.18 107.81 195.8 146.52 230.66"/><polyline class="cls-2" points="195.03 181.78 249.44 213.19 274.81 163.34 216.75 135.12 216.18 134.85 174.65 137.77 150.68 87.98 223.78 84.12 174.65 137.77"/><path class="cls-2" d="M181.26,137.62" transform="translate(93.55 25.72)"/><polyline class="cls-2" points="249.56 211.52 216.18 134.85 261.24 93.31 344.85 104.29"/><polyline class="cls-2" points="260.64 93.85 334.76 39.68 337.66 64.14 369.4 45.96 344.85 104.29 336.88 64.42 261.39 93.19 275.68 39.83 244.06 47.16 261.24 93.31 223.78 84.12 244.05 47.56 180.75 65.54 114.11 68.07 152.92 36.82 180.76 65.18 219.51 14.23 153.24 36.55"/><polygon class="cls-2" points="83.36 156.74 107.81 195.8 51.15 223.55 83.36 156.74"/><polyline class="cls-2" points="244.05 47.56 219.51 14.23 275.68 39.83 268.65 2.27 319.07 7.94 376.11 4.6 435.89 41.28 500.95 59.49"/><polyline class="cls-2" points="152.92 36.82 99.52 17 114.11 68.07 61.22 107.7"/><polygon class="cls-2" points="100.31 345.46 178.17 305.63 98.53 261.89 100.31 345.46"/><path class="cls-1" d="M342.34,19.85c5.53,0,5.54-8.59,0-8.59s-5.54,8.59,0,8.59Z" transform="translate(93.55 25.72)"/><polyline class="cls-2" points="369.4 45.96 435.89 41.28 426.74 65.12 500.95 59.49 494.38 6.39 543.15 17.22 501.63 59.49"/><polyline class="cls-2" points="344.85 104.29 274.81 163.34 261.05 127.68 344.85 104.29 426.74 65.12 369.4 45.96 334.76 39.68 275.68 39.83 319.07 7.94 334.76 39.2 376.11 4.6 369.79 45.53"/><polyline class="cls-2" points="223.78 84.12 216.18 134.85 261.05 127.68 261.24 93.31"/><polyline class="cls-2" points="107.81 195.8 195.03 181.78 146.52 230.66 178.17 305.63 209.46 235.47 146.52 230.66 98.53 261.89 107.81 195.8 174.65 137.77 195.03 181.78 209.46 235.47 250.2 212.99"/><path class="cls-1" d="M167.5,106.25c5.53,0,5.54-8.59,0-8.59s-5.54,8.59,0,8.59Z" transform="translate(93.55 25.72)"/><polyline class="cls-2" points="178.17 305.63 150.84 381.11 100.31 345.46 22.87 291.73 98.53 261.89 51.15 223.55"/><path class="cls-2" d="M-1.6,335.36l8.36-15.62Z" transform="translate(93.55 25.72)"/><polyline class="cls-2" points="92.27 361.02 47.33 375.18 103.91 420.47 91.95 361.09 150.84 381.11 103.9 420.7 58.11 478.95 24.16 451.68 104.18 420.06 4.15 388.82 23.75 451.44"/><line class="cls-2" x1="4.16" y1="388.05" x2="47.33" y2="375.18"/><polygon class="cls-2" points="494.38 6.39 435.89 41.28 440.32 0.4 494.38 6.39"/></svg>