<svg id="Layer_1" data-name="Layer 1" xmlns="http://www.w3.org/2000/svg" viewBox="0 0 497.72 525"><defs><style>.cls-1{fill:#231f20;}.cls-2{fill:none;stroke:#231f20;stroke-miterlimit:10;stroke-width:0.72px;}</style></defs><title>brand1-reflected</title><path class="cls-1" d="M564.69,790.28c5.53,0,5.54-8.59,0-8.59s-5.54,8.59,0,8.59Z" transform="translate(-151.04 -359.28)"/><path class="cls-1" d="M504.5,790.4c5.53,0,5.54-8.59,0-8.59s-5.53,8.59,0,8.59Z" transform="translate(-151.04 -359.28)"/><path class="cls-1" d="M546.61,752.78c5.52,0,5.53-8.6,0-8.6s-5.54,8.6,0,8.6Z" transform="translate(-151.04 -359.28)"/><path class="cls-1" d="M570.5,723.85c5.53,0,5.54-8.59,0-8.59s-5.53,8.59,0,8.59Z" transform="translate(-151.04 -359.28)"/><path class="cls-1" d="M436.81,790.28c5.52,0,5.53-8.6,0-8.6s-5.54,8.6,0,8.6Z" transform="translate(-151.04 -359.28)"/><path class="cls-1" d="M370.34,796.28c5.52,0,5.53-8.59,0-8.59s-5.54,8.59,0,8.59Z" transform="translate(-151.04 -359.28)"/><path class="cls-1" d="M455.12,703.85c5.52,0,5.53-8.6,0-8.6s-5.54,8.6,0,8.6Z" transform="translate(-151.04 -359.28)"/><path class="cls-1" d="M546.75,642.09c5.52,0,5.53-8.59,0-8.59s-5.54,8.59,0,8.59Z" transform="translate(-151.04 -359.28)"/><path class="cls-1" d="M498.4,726.8h.36a4.34,4.34,0,0,0,4.3-4.3,4.38,4.38,0,0,0-4.3-4.29l-.36,0a4.34,4.34,0,0,0-4.29,4.3,4.4,4.4,0,0,0,4.29,4.3Z" transform="translate(-151.04 -359.28)"/><path class="cls-1" d="M591.59,661.51c5.52,0,5.53-8.59,0-8.59s-5.54,8.59,0,8.59Z" transform="translate(-151.04 -359.28)"/><path class="cls-1" d="M597.82,753.07c5.53,0,5.54-8.6,0-8.6s-5.54,8.6,0,8.6Z" transform="translate(-151.04 -359.28)"/><path class="cls-1" d="M579.33,568c5.53,0,5.54-8.59,0-8.59s-5.54,8.59,0,8.59Z" transform="translate(-151.04 -359.28)"/><path class="cls-1" d="M599.38,536.4c5.53,0,5.53-8.59,0-8.59s-5.54,8.59,0,8.59Z" transform="translate(-151.04 -359.28)"/><path class="cls-1" d="M600.87,630.3c5.53,0,5.54-8.59,0-8.59s-5.53,8.59,0,8.59Z" transform="translate(-151.04 -359.28)"/><path class="cls-1" d="M623.66,687.67c5.53,0,5.54-8.6,0-8.6s-5.54,8.6,0,8.6Z" transform="translate(-151.04 -359.28)"/><path class="cls-1" d="M615,807.37c5.53,0,5.54-8.59,0-8.59s-5.54,8.59,0,8.59Z" transform="translate(-151.04 -359.28)"/><path class="cls-1" d="M522.5,841.16c5.53,0,5.54-8.59,0-8.59s-5.54,8.59,0,8.59Z" transform="translate(-151.04 -359.28)"/><path class="cls-1" d="M406.29,845.49c5.53,0,5.54-8.59,0-8.59s-5.54,8.59,0,8.59Z" transform="translate(-151.04 -359.28)"/><path class="cls-1" d="M474.61,816.62c5.53,0,5.53-8.59,0-8.59s-5.54,8.59,0,8.59Z" transform="translate(-151.04 -359.28)"/><path class="cls-1" d="M554.07,680c5.53,0,5.54-8.59,0-8.59s-5.54,8.59,0,8.59Z" transform="translate(-151.04 -359.28)"/><path class="cls-1" d="M603.93,571.3c5.53,0,5.54-8.59,0-8.59s-5.53,8.59,0,8.59Z" transform="translate(-151.04 -359.28)"/><path class="cls-1" d="M503,685c5.53,0,5.54-8.59,0-8.59s-5.54,8.59,0,8.59Z" transform="translate(-151.04 -359.28)"/><path class="cls-1" d="M477.47,625.08c5.53,0,5.54-8.6,0-8.6s-5.54,8.6,0,8.6Z" transform="translate(-151.04 -359.28)"/><path class="cls-1" d="M539.9,558c5.53,0,5.54-8.59,0-8.59s-5.54,8.59,0,8.59Z" transform="translate(-151.04 -359.28)"/><path class="cls-1" d="M583.07,478.18c5.52,0,5.53-8.59,0-8.59s-5.54,8.59,0,8.59Z" transform="translate(-151.04 -359.28)"/><path class="cls-1" d="M592.36,404.34c5.52,0,5.53-8.59,0-8.59s-5.54,8.59,0,8.59Z" transform="translate(-151.04 -359.28)"/><path class="cls-1" d="M403.9,749.89c5.52,0,5.53-8.6,0-8.6s-5.54,8.6,0,8.6Z" transform="translate(-151.04 -359.28)"/><path class="cls-1" d="M287,790.37c5.53,0,5.54-8.59,0-8.59s-5.54,8.59,0,8.59Z" transform="translate(-151.04 -359.28)"/><path class="cls-1" d="M253.84,738.15c5.53,0,5.54-8.59,0-8.59s-5.54,8.59,0,8.59Z" transform="translate(-151.04 -359.28)"/><path class="cls-1" d="M330.58,714.58c5.52,0,5.53-8.59,0-8.59s-5.54,8.59,0,8.59Z" transform="translate(-151.04 -359.28)"/><path class="cls-1" d="M402.2,686.78c5.53,0,5.54-8.59,0-8.59s-5.54,8.59,0,8.59Z" transform="translate(-151.04 -359.28)"/><path class="cls-1" d="M426.43,648h0c5.53,0,5.54-8.6,0-8.6h0c-5.53,0-5.54,8.6,0,8.6h0c5.53,0,5.54-8.6,0-8.6h0c-5.53,0-5.54,8.6,0,8.6Z" transform="translate(-151.04 -359.28)"/><path class="cls-1" d="M212.21,783.08c5.53,0,5.54-8.59,0-8.59s-5.54,8.59,0,8.59Z" transform="translate(-151.04 -359.28)"/><path class="cls-1" d="M238.9,884.28c5.53,0,5.53-8.6,0-8.6s-5.54,8.6,0,8.6Z" transform="translate(-151.04 -359.28)"/><path class="cls-1" d="M254.65,841.82c5.53,0,5.54-8.59,0-8.59s-5.53,8.59,0,8.59Z" transform="translate(-151.04 -359.28)"/><path class="cls-1" d="M270.93,798c5.53,0,5.54-8.59,0-8.59s-5.53,8.59,0,8.59Z" transform="translate(-151.04 -359.28)"/><path class="cls-1" d="M336.8,870.38c5.53,0,5.54-8.6,0-8.6s-5.54,8.6,0,8.6Z" transform="translate(-151.04 -359.28)"/><polyline class="cls-2" points="403.03 316.37 419.46 360.27 395.56 389.2"/><line class="cls-2" x1="304.07" y1="340.27" x2="351.99" y2="321.46"/><polyline class="cls-2" points="347.72 363.23 353.42 426.35 353.46 426.83 323.56 453.05 371.45 477.58 352.84 426.19 413.64 426.7 395.56 389.2 353.46 426.83 285.76 426.7 252.85 386.31"/><polyline class="cls-2" points="304.07 340.27 275.39 284.38 326.43 261.5 351.74 320.88 351.99 321.46 347.02 362.8 395.56 389.2 403.03 316.37 347.02 362.8"/><path class="cls-2" d="M477.47,620.78" transform="translate(-151.04 -359.28)"/><polyline class="cls-2" points="277.06 284.34 351.99 321.46 395.7 278.52 388.86 194.46"/><polyline class="cls-2" points="395.13 279.08 452.89 207.72 428.61 203.62 448.33 172.82 388.86 194.46 428.29 204.39 395.83 278.37 449.83 266.72 440.95 297.95 395.7 278.52 403.03 316.37 440.54 297.93 419.46 360.27 413.64 426.7 446.78 389.49 419.82 360.28 472.62 324.09 447.06 389.18"/><polygon class="cls-2" points="323.56 453.05 285.76 426.7 255.25 481.91 323.56 453.05"/><polyline class="cls-2" points="440.54 297.93 472.62 324.09 449.83 266.72 486.99 275.6 483.82 224.97 489.97 168.16 456.29 106.64 441.31 40.76"/><polyline class="cls-2" points="446.78 389.49 463.94 443.8 413.64 426.7 371.45 477.58"/><polygon class="cls-2" points="135.91 426.79 179.53 351 219.29 432.7 135.91 426.79"/><path class="cls-1" d="M607.33,470.22c5.53,0,5.54-8.59,0-8.59s-5.53,8.59,0,8.59Z" transform="translate(-151.04 -359.28)"/><polyline class="cls-2" points="448.33 172.82 456.29 106.64 432.02 114.6 441.31 40.76 494.02 49.95 485.61 0.7 441.35 40.09"/><polyline class="cls-2" points="388.86 194.46 326.43 261.5 361.37 277 388.86 194.46 432.02 114.6 448.33 172.82 452.89 207.72 449.83 266.72 483.82 224.97 453.38 207.75 489.97 168.16 448.77 172.45"/><polyline class="cls-2" points="403.03 316.37 351.99 321.46 361.37 277 395.7 278.52"/><polyline class="cls-2" points="285.76 426.7 304.07 340.27 252.85 386.31 179.53 351 251.16 323.21 252.85 386.31 219.29 432.7 285.76 426.7 347.02 362.8 304.07 340.27 251.16 323.21 275.62 283.63"/><path class="cls-1" d="M512.41,640.58c5.53,0,5.54-8.59,0-8.59s-5.54,8.59,0,8.59Z" transform="translate(-151.04 -359.28)"/><polyline class="cls-2" points="179.53 351 102.8 374.57 135.91 426.79 185.75 506.8 219.29 432.7 255.25 481.91"/><path class="cls-2" d="M270.93,793.65l16-7.58Z" transform="translate(-151.04 -359.28)"/><polyline class="cls-2" points="119.98 434.06 103.61 478.24 61.17 419.5 119.89 434.37 102.8 374.57 60.94 419.5 0.5 462.36 26.06 497.61 61.59 419.25 87.85 520.7 26.29 498.03"/><line class="cls-2" x1="88.63" y1="520.73" x2="103.61" y2="478.24"/><polygon class="cls-2" points="494.02 49.95 456.29 106.64 497.34 104.24 494.02 49.95"/></svg>