<svg id="Layer_1" data-name="Layer 1" xmlns="http://www.w3.org/2000/svg" viewBox="0 0 572.2 657.69"><defs><style>.cls-1{fill:#231f20;}.cls-2{fill:none;stroke:#231f20;stroke-miterlimit:10;stroke-width:0.72px;}</style></defs><title>brand1</title><path class="cls-1" d="M20.56,46.64c5.53,0,5.54-8.59,0-8.59s-5.53,8.59,0,8.59Z" transform="translate(121.89 25.72)"/><path class="cls-1" d="M17.47,106.75c5.53,0,5.54-8.59,0-8.59s-5.54,8.59,0,8.59Z" transform="translate(121.89 25.72)"/><path class="cls-1" d="M57.13,66.56c5.53,0,5.54-8.6,0-8.6s-5.54,8.6,0,8.6Z" transform="translate(121.89 25.72)"/><path class="cls-1" d="M87.2,44.11c5.53,0,5.54-8.59,0-8.59s-5.54,8.59,0,8.59Z" transform="translate(121.89 25.72)"/><path class="cls-1" d="M14.25,174.37c5.53,0,5.54-8.59,0-8.59s-5.53,8.59,0,8.59Z" transform="translate(121.89 25.72)"/><path class="cls-1" d="M5,240.46c5.53,0,5.53-8.59,0-8.59s-5.54,8.59,0,8.59Z" transform="translate(121.89 25.72)"/><path class="cls-1" d="M101.48,160.35c5.53,0,5.54-8.59,0-8.59s-5.54,8.59,0,8.59Z" transform="translate(121.89 25.72)"/><path class="cls-1" d="M167.68,71.88c5.53,0,5.54-8.59,0-8.59s-5.53,8.59,0,8.59Z" transform="translate(121.89 25.72)"/><path class="cls-1" d="M85,111.68v-.35a4.39,4.39,0,0,0-1.26-3,4.33,4.33,0,0,0-3-1.26,4.38,4.38,0,0,0-4.29,4.3v.35a4.3,4.3,0,1,0,8.59,0Z" transform="translate(121.89 25.72)"/><path class="cls-1" d="M150.5,26.14c5.53,0,5.54-8.6,0-8.6s-5.54,8.6,0,8.6Z" transform="translate(121.89 25.72)"/><path class="cls-1" d="M59.37,15.39c5.53,0,5.54-8.59,0-8.59s-5.54,8.59,0,8.59Z" transform="translate(121.89 25.72)"/><path class="cls-1" d="M243.33,43c5.53,0,5.54-8.59,0-8.59s-5.54,8.59,0,8.59Z" transform="translate(121.89 25.72)"/><path class="cls-1" d="M275.85,24.53c5.53,0,5.53-8.59,0-8.59s-5.54,8.59,0,8.59Z" transform="translate(121.89 25.72)"/><path class="cls-1" d="M182.13,18.4c5.53,0,5.54-8.59,0-8.59s-5.53,8.59,0,8.59Z" transform="translate(121.89 25.72)"/><path class="cls-1" d="M126-7.19c5.53,0,5.54-8.59,0-8.59s-5.53,8.59,0,8.59Z" transform="translate(121.89 25.72)"/><path class="cls-1" d="M6-4.43C11.5-4.43,11.51-13,6-13S.43-4.43,6-4.43Z" transform="translate(121.89 25.72)"/><path class="cls-1" d="M-32.34,86.27c5.53,0,5.54-8.59,0-8.59s-5.53,8.59,0,8.59Z" transform="translate(121.89 25.72)"/><path class="cls-1" d="M-42.4,202.12c5.53,0,5.54-8.59,0-8.59s-5.54,8.59,0,8.59Z" transform="translate(121.89 25.72)"/><path class="cls-1" d="M-10.19,135.32c5.52,0,5.53-8.6,0-8.6s-5.54,8.6,0,8.6Z" transform="translate(121.89 25.72)"/><path class="cls-1" d="M130.23,62.7c5.53,0,5.54-8.6,0-8.6s-5.53,8.6,0,8.6Z" transform="translate(121.89 25.72)"/><path class="cls-1" d="M241.21,18.26c5.53,0,5.54-8.6,0-8.6s-5.53,8.6,0,8.6Z" transform="translate(121.89 25.72)"/><path class="cls-1" d="M122.63,113.42c5.53,0,5.54-8.59,0-8.59s-5.54,8.59,0,8.59Z" transform="translate(121.89 25.72)"/><path class="cls-1" d="M181.26,141.91c5.53,0,5.54-8.59,0-8.59s-5.54,8.59,0,8.59Z" transform="translate(121.89 25.72)"/><path class="cls-1" d="M251.3,82.86c5.52,0,5.53-8.59,0-8.59s-5.54,8.59,0,8.59Z" transform="translate(121.89 25.72)"/><path class="cls-1" d="M333.19,43.69c5.53,0,5.54-8.59,0-8.59s-5.54,8.59,0,8.59Z" transform="translate(121.89 25.72)"/><path class="cls-1" d="M407.4,38.06c5.53,0,5.53-8.59,0-8.59s-5.54,8.59,0,8.59Z" transform="translate(121.89 25.72)"/><path class="cls-1" d="M53,209.23c5.53,0,5.54-8.59,0-8.59s-5.54,8.59,0,8.59Z" transform="translate(121.89 25.72)"/><path class="cls-1" d="M6.76,324c5.53,0,5.54-8.59,0-8.59S1.23,324,6.76,324Z" transform="translate(121.89 25.72)"/><path class="cls-1" d="M57.28,359.68c5.53,0,5.54-8.59,0-8.59s-5.53,8.59,0,8.59Z" transform="translate(121.89 25.72)"/><path class="cls-1" d="M84.62,284.21c5.52,0,5.53-8.59,0-8.59s-5.54,8.59,0,8.59Z" transform="translate(121.89 25.72)"/><path class="cls-1" d="M115.91,214.05c5.53,0,5.54-8.6,0-8.6s-5.54,8.6,0,8.6Z" transform="translate(121.89 25.72)"/><path class="cls-1" d="M160.18,187.46h0c0-5.52-8.59-5.53-8.59,0h0c0,5.53,8.59,5.54,8.59,0h0c0-5.52-8.59-5.53-8.59,0h0c0,5.53,8.59,5.54,8.59,0Z" transform="translate(121.89 25.72)"/><path class="cls-1" d="M10.35,399.05c5.53,0,5.54-8.6,0-8.6s-5.53,8.6,0,8.6Z" transform="translate(121.89 25.72)"/><path class="cls-1" d="M-73.23,632c7.06,0,7.07-11,0-11s-7.08,11,0,11Z" transform="translate(121.89 25.72)"/><path class="cls-1" d="M-116.59,597.14c7.06,0,7.07-11,0-11s-7.07,11,0,11Z" transform="translate(121.89 25.72)"/><path class="cls-1" d="M-89.4,367.4c5.53,0,5.54-8.59,0-8.59s-5.54,8.59,0,8.59Z" transform="translate(121.89 25.72)"/><path class="cls-1" d="M-46.22,353.76c5.53,0,5.54-8.6,0-8.6s-5.54,8.6,0,8.6Z" transform="translate(121.89 25.72)"/><path class="cls-1" d="M-1.6,339.66c5.53,0,5.54-8.59,0-8.59s-5.54,8.59,0,8.59Z" transform="translate(121.89 25.72)"/><path class="cls-1" d="M-70.68,270.3c5.52,0,5.53-8.59,0-8.59s-5.54,8.59,0,8.59Z" transform="translate(121.89 25.72)"/><polyline class="cls-2" points="252.12 84.12 209.09 65.54 179.02 87.98"/><line class="cls-2" x1="223.37" y1="181.78" x2="244.52" y2="134.85"/><polyline class="cls-2" points="202.59 137.05 139.84 128.24 139.36 128.18 111.7 156.74 89.55 107.7 139.96 128.82 142.45 68.07 179.02 87.98 139.36 128.18 136.14 195.8 174.86 230.66"/><polyline class="cls-2" points="223.37 181.78 277.78 213.19 303.15 163.34 245.09 135.12 244.52 134.85 202.99 137.77 179.02 87.98 252.12 84.12 202.99 137.77"/><path class="cls-2" d="M181.26,137.62" transform="translate(121.89 25.72)"/><polyline class="cls-2" points="277.9 211.52 244.52 134.85 289.57 93.31 373.19 104.29"/><polyline class="cls-2" points="288.98 93.85 363.1 39.68 366 64.14 397.74 45.96 373.19 104.29 365.22 64.42 289.73 93.19 304.02 39.83 272.4 47.16 289.57 93.31 252.12 84.12 272.39 47.56 209.09 65.54 142.45 68.07 181.26 36.82 209.1 65.18 247.85 14.23 181.58 36.55"/><polygon class="cls-2" points="111.7 156.74 136.14 195.8 79.49 223.55 111.7 156.74"/><polyline class="cls-2" points="272.39 47.56 247.85 14.23 304.02 39.83 296.99 2.27 347.41 7.94 404.45 4.6 464.23 41.28 529.29 59.49"/><polyline class="cls-2" points="181.26 36.82 127.86 17 142.45 68.07 89.55 107.7"/><polygon class="cls-2" points="128.65 345.46 206.5 305.63 126.87 261.89 128.65 345.46"/><path class="cls-1" d="M342.34,19.85c5.53,0,5.54-8.59,0-8.59s-5.54,8.59,0,8.59Z" transform="translate(121.89 25.72)"/><polyline class="cls-2" points="397.74 45.96 464.23 41.28 455.08 65.12 529.29 59.49 522.71 6.39 571.49 17.22 529.96 59.49"/><polyline class="cls-2" points="373.19 104.29 303.15 163.34 289.39 127.68 373.19 104.29 455.08 65.12 397.74 45.96 363.1 39.68 304.02 39.83 347.41 7.94 363.1 39.2 404.45 4.6 398.13 45.53"/><polyline class="cls-2" points="252.12 84.12 244.52 134.85 289.39 127.68 289.57 93.31"/><polyline class="cls-2" points="136.14 195.8 223.37 181.78 174.86 230.66 206.5 305.63 237.8 235.47 174.86 230.66 126.87 261.89 136.14 195.8 202.99 137.77 223.37 181.78 237.8 235.47 278.54 212.99"/><path class="cls-1" d="M167.5,106.25c5.53,0,5.54-8.59,0-8.59s-5.54,8.59,0,8.59Z" transform="translate(121.89 25.72)"/><polyline class="cls-2" points="206.5 305.63 179.17 381.11 128.65 345.46 51.21 291.73 126.87 261.89 79.49 223.55"/><path class="cls-2" d="M-1.6,335.36l8.36-15.62Z" transform="translate(121.89 25.72)"/><polyline class="cls-2" points="120.61 361.02 75.67 375.18 132.25 420.47 120.29 361.09 179.17 381.11 132.24 420.7 86.45 478.95 52.5 451.68 132.52 420.06 32.49 388.82 52.09 451.44"/><line class="cls-2" x1="32.5" y1="388.05" x2="75.67" y2="375.18"/><polygon class="cls-2" points="522.71 6.39 464.23 41.28 468.65 0.4 522.71 6.39"/></svg>