<svg id="Layer_1" data-name="Layer 1" xmlns="http://www.w3.org/2000/svg" viewBox="0 0 304.36 106.65"><defs><style>.cls-1,.cls-2,.cls-3,.cls-4{isolation:isolate;}.cls-1{font-size:41.59px;}.cls-1,.cls-3,.cls-4{fill:#231f20;font-family:FuturaBT-Medium, Futura Md BT;}.cls-3,.cls-4{font-size:69.51px;}.cls-3{letter-spacing:-0.02em;}.cls-5{fill:none;stroke:#000;stroke-miterlimit:10;stroke-width:0.24px;}</style></defs><title>logo-horizontal</title><g id="Layer_2" data-name="Layer 2"><g id="Layer_1-2" data-name="Layer 1-2"><text class="cls-1" transform="translate(58.9 35.92) rotate(-0.31)">LA</text><g class="cls-2"><text class="cls-3" transform="translate(0.74 89.49) rotate(0.14)">V</text><text class="cls-4" transform="translate(42.53 89.59) rotate(0.14)">AR ABLE</text></g></g></g><ellipse cx="130.72" cy="40.51" rx="1.56" ry="1.49"/><ellipse cx="130.66" cy="47.15" rx="0.81" ry="0.78"/><ellipse cx="139.89" cy="51.64" rx="1.28" ry="1.22"/><ellipse cx="135.45" cy="45.39" rx="1.62" ry="1.55"/><ellipse cx="135.02" cy="66.56" rx="0.93" ry="0.89"/><ellipse cx="136.05" cy="81.51" rx="1.86" ry="1.78"/><ellipse cx="137.72" cy="87.16" rx="2.1" ry="2.01"/><ellipse cx="137.91" cy="59.2" rx="1.73" ry="1.65"/><ellipse cx="144.72" cy="40.51" rx="2.09" ry="2"/><ellipse cx="144.89" cy="49.51" rx="1.93" ry="1.85"/><ellipse cx="130.72" cy="71.33" rx="1.81" ry="1.73"/><ellipse cx="130.72" cy="53.69" rx="1.32" ry="1.27"/><ellipse cx="144.72" cy="63.1" rx="1.39" ry="1.33"/><ellipse cx="130.72" cy="65.3" rx="0.87" ry="0.83"/><ellipse cx="144.72" cy="74.97" rx="1.39" ry="1.33"/><ellipse cx="144.72" cy="83.83" rx="1.19" ry="1.14"/><ellipse cx="140.32" cy="70.52" rx="2.57" ry="2.46"/><ellipse cx="130.72" cy="83.21" rx="1.39" ry="1.33"/><ellipse cx="130.72" cy="89.92" rx="1.56" ry="1.5"/><ellipse cx="144.72" cy="89.92" rx="0.95" ry="0.91"/><ellipse cx="138.28" cy="40.51" rx="0.7" ry="0.67"/><polyline class="cls-5" points="130.66 45.39 130.66 53.69 138.07 59.2 139.97 51.47"/><polyline class="cls-5" points="130.72 40.51 138.28 40.51 144.72 40.51 135.55 45.39 139.89 51.64 144.72 49.51 135.48 45.34 130.66 47.15"/><polyline class="cls-5" points="137.91 59.15 144.72 63.1 140.32 70.44 135 66.56 130.72 65.3 130.72 71.56 136.05 81.57 130.72 83.17 130.72 90.13 137.72 87.17 144.89 89.92 144.72 83.83 135.86 81.47"/><line class="cls-5" x1="130.72" y1="90.13" x2="144.72" y2="89.92"/><polyline class="cls-5" points="135 66.56 130.72 71.56 140.32 70.44"/><polyline class="cls-5" points="130.72 71.56 130.72 83.21 137.81 87.2"/><polyline class="cls-5" points="136.05 81.57 137.72 87.17 144.72 83.83 144.72 74.97 136.05 81.57 140.32 70.44 144.72 74.97 144.72 63.1"/><polyline class="cls-5" points="138.06 59.1 144.89 49.29 144.72 63.1 135 66.56 138.06 59.1 130.72 65.3 130.66 53.69 139.89 51.64 130.66 47.15 130.66 40.51 135.65 45.34"/><line class="cls-5" x1="138.28" y1="40.57" x2="135.55" y2="45.39"/><line class="cls-5" x1="144.89" y1="40.51" x2="144.78" y2="49.51"/></svg>